<svg xmlns="http://www.w3.org/2000/svg" viewBox="0 0 56 56"><style>.st0{display:none;} .st1{display:inline;} .st2{fill:#363537;} .st3{fill:#E71D36;} .st4{display:inline;fill:#363537;} .st5{fill:#363537;}</style><g id="Layer_1" class="st0"><g class="st1"><circle class="st2" cx="28" cy="28" r="28"/><path class="st3" d="M33.7 10.5h-1.5C32.1 8 30.2 6 27.9 6s-4.2 2-4.3 4.6h-1.5c-.7 0-1.3.5-1.3 1.1v3.2c0 .6.6 1.1 1.3 1.1h11.6c.7 0 1.3-.5 1.3-1.1v-3.2c0-.7-.6-1.2-1.3-1.2zm-5.8-.3c-.7 0-1.3-.6-1.3-1.3s.6-1.3 1.3-1.3c.7 0 1.3.6 1.3 1.3s-.6 1.3-1.3 1.3zM19.1 20.7h17.8V23H19.1zM19.1 28.8h17.8v2.3H19.1zM19.1 37h17.8v2.3H19.1z"/><path class="st3" d="M39.7 12.8h-3.3v1.7h3.3v30.8H16.3V14.5h3.3v-1.7h-3.3c-1 0-1.8.8-1.8 1.8v30.7c0 1 .8 1.8 1.8 1.8H39.7c1 0 1.8-.8 1.8-1.8V14.5c0-1-.8-1.7-1.8-1.7z"/></g><circle class="st4" cx="28" cy="28" r="28"/><g class="st1"><path class="st5" d="M33.7 10.5h-1.5C32.1 8 30.2 6 27.9 6s-4.2 2-4.3 4.6h-1.5c-.7 0-1.3.5-1.3 1.1v3.2c0 .6.6 1.1 1.3 1.1h11.6c.7 0 1.3-.5 1.3-1.1v-3.2c0-.7-.6-1.2-1.3-1.2zm-5.8-.3c-.7 0-1.3-.6-1.3-1.3s.6-1.3 1.3-1.3c.7 0 1.3.6 1.3 1.3s-.6 1.3-1.3 1.3zM19.1 20.7h17.8V23H19.1zM19.1 28.8h17.8v2.3H19.1zM19.1 37h17.8v2.3H19.1z"/><path class="st5" d="M39.7 12.8h-3.3v1.7h3.3v30.8H16.3V14.5h3.3v-1.7h-3.3c-1 0-1.8.8-1.8 1.8v30.7c0 1 .8 1.8 1.8 1.8H39.7c1 0 1.8-.8 1.8-1.8V14.5c0-1-.8-1.7-1.8-1.7z"/></g></g><g id="Layer_1_copy" class="st0"><g class="st1"><circle class="st2" cx="28" cy="28" r="28"/><path class="st3" d="M33.7 10.5h-1.5C32.1 8 30.2 6 27.9 6s-4.2 2-4.3 4.6h-1.5c-.7 0-1.3.5-1.3 1.1v3.2c0 .6.6 1.1 1.3 1.1h11.6c.7 0 1.3-.5 1.3-1.1v-3.2c0-.7-.6-1.2-1.3-1.2zm-5.8-.3c-.7 0-1.3-.6-1.3-1.3s.6-1.3 1.3-1.3c.7 0 1.3.6 1.3 1.3s-.6 1.3-1.3 1.3zM19.1 20.7h17.8V23H19.1zM19.1 28.8h17.8v2.3H19.1zM19.1 37h17.8v2.3H19.1z"/><path class="st3" d="M39.7 12.8h-3.3v1.7h3.3v30.8H16.3V14.5h3.3v-1.7h-3.3c-1 0-1.8.8-1.8 1.8v30.7c0 1 .8 1.8 1.8 1.8H39.7c1 0 1.8-.8 1.8-1.8V14.5c0-1-.8-1.7-1.8-1.7z"/></g><circle class="st4" cx="28" cy="28" r="28"/><g class="st1"><path class="st5" d="M33.7 10.5h-1.5C32.1 8 30.2 6 27.9 6s-4.2 2-4.3 4.6h-1.5c-.7 0-1.3.5-1.3 1.1v3.2c0 .6.6 1.1 1.3 1.1h11.6c.7 0 1.3-.5 1.3-1.1v-3.2c0-.7-.6-1.2-1.3-1.2zm-5.8-.3c-.7 0-1.3-.6-1.3-1.3s.6-1.3 1.3-1.3c.7 0 1.3.6 1.3 1.3s-.6 1.3-1.3 1.3zM19.1 20.7h17.8V23H19.1zM19.1 28.8h17.8v2.3H19.1zM19.1 37h17.8v2.3H19.1z"/><path class="st5" d="M39.7 12.8h-3.3v1.7h3.3v30.8H16.3V14.5h3.3v-1.7h-3.3c-1 0-1.8.8-1.8 1.8v30.7c0 1 .8 1.8 1.8 1.8H39.7c1 0 1.8-.8 1.8-1.8V14.5c0-1-.8-1.7-1.8-1.7z"/></g></g><g id="Layer_1_copy_2" class="st0"><g class="st1"><circle class="st2" cx="28" cy="28" r="28"/><path class="st3" d="M33.7 10.5h-1.5C32.1 8 30.2 6 27.9 6s-4.2 2-4.3 4.6h-1.5c-.7 0-1.3.5-1.3 1.1v3.2c0 .6.6 1.1 1.3 1.1h11.6c.7 0 1.3-.5 1.3-1.1v-3.2c0-.7-.6-1.2-1.3-1.2zm-5.8-.3c-.7 0-1.3-.6-1.3-1.3s.6-1.3 1.3-1.3c.7 0 1.3.6 1.3 1.3s-.6 1.3-1.3 1.3zM19.1 20.7h17.8V23H19.1zM19.1 28.8h17.8v2.3H19.1zM19.1 37h17.8v2.3H19.1z"/><path class="st3" d="M39.7 12.8h-3.3v1.7h3.3v30.8H16.3V14.5h3.3v-1.7h-3.3c-1 0-1.8.8-1.8 1.8v30.7c0 1 .8 1.8 1.8 1.8H39.7c1 0 1.8-.8 1.8-1.8V14.5c0-1-.8-1.7-1.8-1.7z"/></g><circle class="st4" cx="28" cy="28" r="28"/><g class="st1"><path class="st5" d="M33.7 10.5h-1.5C32.1 8 30.2 6 27.9 6s-4.2 2-4.3 4.6h-1.5c-.7 0-1.3.5-1.3 1.1v3.2c0 .6.6 1.1 1.3 1.1h11.6c.7 0 1.3-.5 1.3-1.1v-3.2c0-.7-.6-1.2-1.3-1.2zm-5.8-.3c-.7 0-1.3-.6-1.3-1.3s.6-1.3 1.3-1.3c.7 0 1.3.6 1.3 1.3s-.6 1.3-1.3 1.3zM19.1 20.7h17.8V23H19.1zM19.1 28.8h17.8v2.3H19.1zM19.1 37h17.8v2.3H19.1z"/><path class="st5" d="M39.7 12.8h-3.3v1.7h3.3v30.8H16.3V14.5h3.3v-1.7h-3.3c-1 0-1.8.8-1.8 1.8v30.7c0 1 .8 1.8 1.8 1.8H39.7c1 0 1.8-.8 1.8-1.8V14.5c0-1-.8-1.7-1.8-1.7z"/></g></g><g id="Layer_1_copy_3" class="st0"><g class="st1"><circle class="st2" cx="28" cy="28" r="28"/><path class="st3" d="M33.7 10.5h-1.5C32.1 8 30.2 6 27.9 6s-4.2 2-4.3 4.6h-1.5c-.7 0-1.3.5-1.3 1.1v3.2c0 .6.6 1.1 1.3 1.1h11.6c.7 0 1.3-.5 1.3-1.1v-3.2c0-.7-.6-1.2-1.3-1.2zm-5.8-.3c-.7 0-1.3-.6-1.3-1.3s.6-1.3 1.3-1.3c.7 0 1.3.6 1.3 1.3s-.6 1.3-1.3 1.3zM19.1 20.7h17.8V23H19.1zM19.1 28.8h17.8v2.3H19.1zM19.1 37h17.8v2.3H19.1z"/><path class="st3" d="M39.7 12.8h-3.3v1.7h3.3v30.8H16.3V14.5h3.3v-1.7h-3.3c-1 0-1.8.8-1.8 1.8v30.7c0 1 .8 1.8 1.8 1.8H39.7c1 0 1.8-.8 1.8-1.8V14.5c0-1-.8-1.7-1.8-1.7z"/></g><circle class="st4" cx="28" cy="28" r="28"/><g class="st1"><path class="st5" d="M33.7 10.5h-1.5C32.1 8 30.2 6 27.9 6s-4.2 2-4.3 4.6h-1.5c-.7 0-1.3.5-1.3 1.1v3.2c0 .6.6 1.1 1.3 1.1h11.6c.7 0 1.3-.5 1.3-1.1v-3.2c0-.7-.6-1.2-1.3-1.2zm-5.8-.3c-.7 0-1.3-.6-1.3-1.3s.6-1.3 1.3-1.3c.7 0 1.3.6 1.3 1.3s-.6 1.3-1.3 1.3zM19.1 20.7h17.8V23H19.1zM19.1 28.8h17.8v2.3H19.1zM19.1 37h17.8v2.3H19.1z"/><path class="st5" d="M39.7 12.8h-3.3v1.7h3.3v30.8H16.3V14.5h3.3v-1.7h-3.3c-1 0-1.8.8-1.8 1.8v30.7c0 1 .8 1.8 1.8 1.8H39.7c1 0 1.8-.8 1.8-1.8V14.5c0-1-.8-1.7-1.8-1.7z"/></g></g><g id="Layer_1_copy_4"><circle class="st2" cx="28" cy="28" r="28"/><path class="st3" d="M28.8 33.5l-3.7 3.7-3.7-3.7-5.3-5.3 3.7-3.7 5.3 5.3 11-11 3.7 3.7-11 11z"/></g></svg>